+ filenameToUse=/home/horvathandras/vatic/vatic/public/videouploads/DJI_0016_gazos_gyer_gabonaban_turas_kotcse_20180710_napos_kalaszos_T4.avi
+ filenameNoDot=DJI_0016_gazos_gyer_gabonaban_turas_kotcse_20180710_napos_kalaszos_T4
+ FullUploadPath=/home/horvathandras/vatic/vatic/public/videouploads/DJI_0016_gazos_gyer_gabonaban_turas_kotcse_20180710_napos_kalaszos_T4.avi
+ VideoDataDir=/home/horvathandras/vatic/vatic/videos
+ AvailableObjectTypes='PozitívROI NegatívROI Túrás ~Friss ~1-2Hetes ~Régebbi ~Egyéb1 ~Egyéb2 ~Egyéb3 Rágás ~Friss ~1-2Hetes ~Régebbi ~Egyéb1 ~Egyéb2 ~Egyéb3 Törés ~Friss ~1-2Hetes ~Régebbi ~Egyéb1 ~Egyéb2 ~Egyéb3 Taposás ~Friss ~1-2Hetes ~Régebbi ~Egyéb1 ~Egyéb2 ~Egyéb3 EgészségesNövény Egyéb1 Egyéb2 Egyéb3 Egyéb4 Egyéb5 Bizonytalan Művelőút Gktaposás Vetőhiba Széldöntés Jégkár Belvíz Aszály Erózió EgyszikűGyom KétszikűGyom EgyébNövvédelmiPR'
++ dirname /home/horvathandras/vatic/vatic/vatic_publisher.sh
+ cd /home/horvathandras/vatic/vatic
+ touch /home/horvathandras/vatic/vatic/public/videouploads/DJI_0016_gazos_gyer_gabonaban_turas_kotcse_20180710_napos_kalaszos_T4.avi
+ chmod 744 /home/horvathandras/vatic/vatic/public/videouploads/DJI_0016_gazos_gyer_gabonaban_turas_kotcse_20180710_napos_kalaszos_T4.avi
+ mkdir /home/horvathandras/vatic/vatic/videos/DJI_0016_gazos_gyer_gabonaban_turas_kotcse_20180710_napos_kalaszos_T4
+ turkic extract /home/horvathandras/vatic/vatic/public/videouploads/DJI_0016_gazos_gyer_gabonaban_turas_kotcse_20180710_napos_kalaszos_T4.avi /home/horvathandras/vatic/vatic/videos/DJI_0016_gazos_gyer_gabonaban_turas_kotcse_20180710_napos_kalaszos_T4 --no-resize
ffmpeg version 2.8.14-0ubuntu0.16.04.1 Copyright (c) 2000-2018 the FFmpeg developers
  built with gcc 5.4.0 (Ubuntu 5.4.0-6ubuntu1~16.04.9) 20160609
  configuration: --prefix=/usr --extra-version=0ubuntu0.16.04.1 --build-suffix=-ffmpeg --toolchain=hardened --libdir=/usr/lib/x86_64-linux-gnu --incdir=/usr/include/x86_64-linux-gnu --cc=cc --cxx=g++ --enable-gpl --enable-shared --disable-stripping --disable-decoder=libopenjpeg --disable-decoder=libschroedinger --enable-avresample --enable-avisynth --enable-gnutls --enable-ladspa --enable-libass --enable-libbluray --enable-libbs2b --enable-libcaca --enable-libcdio --enable-libflite --enable-libfontconfig --enable-libfreetype --enable-libfribidi --enable-libgme --enable-libgsm --enable-libmodplug --enable-libmp3lame --enable-libopenjpeg --enable-libopus --enable-libpulse --enable-librtmp --enable-libschroedinger --enable-libshine --enable-libsnappy --enable-libsoxr --enable-libspeex --enable-libssh --enable-libtheora --enable-libtwolame --enable-libvorbis --enable-libvpx --enable-libwavpack --enable-libwebp --enable-libx265 --enable-libxvid --enable-libzvbi --enable-openal --enable-opengl --enable-x11grab --enable-libdc1394 --enable-libiec61883 --enable-libzmq --enable-frei0r --enable-libx264 --enable-libopencv
  libavutil      54. 31.100 / 54. 31.100
  libavcodec     56. 60.100 / 56. 60.100
  libavformat    56. 40.101 / 56. 40.101
  libavdevice    56.  4.100 / 56.  4.100
  libavfilter     5. 40.101 /  5. 40.101
  libavresample   2.  1.  0 /  2.  1.  0
  libswscale      3.  1.101 /  3.  1.101
  libswresample   1.  2.101 /  1.  2.101
  libpostproc    53.  3.100 / 53.  3.100
Input #0, mov,mp4,m4a,3gp,3g2,mj2, from '/home/horvathandras/vatic/vatic/public/videouploads/DJI_0016_gazos_gyer_gabonaban_turas_kotcse_20180710_napos_kalaszos_T4.avi':
  Metadata:
    major_brand     : qt  
    minor_version   : 537986816
    compatible_brands: qt  
    creation_time   : 2018-07-10 09:25:21
    location        : +46.716149+17.869787+30.700
    location-{    : +46.716149+17.869787+30.700
    comment         : DE=None, Mode=P, DSW=0001
  Duration: 00:00:10.40, start: 0.000000, bitrate: 102642 kb/s
    Stream #0:0(eng): Video: h264 (High) (avc1 / 0x31637661), yuv420p(tv, bt709), 4096x2160 [SAR 1:1 DAR 256:135], 102250 kb/s, 50 fps, 50 tbr, 50k tbn, 100 tbc (default)
    Metadata:
      creation_time   : 2018-07-10 09:25:21
      handler_name    : DJI.AVC
      encoder         : AVC encoder
    Stream #0:1(eng): Data: none (priv / 0x76697270), 365 kb/s
    Metadata:
      creation_time   : 2018-07-10 09:25:21
      handler_name    : DJI.Meta
Please use -b:a or -b:v, -b is ambiguous
[swscaler @ 0x25e3be0] deprecated pixel format used, make sure you did set range correctly
Output #0, image2, to '/tmp/pyvision-ffmpeg-52069813/%d.jpg':
  Metadata:
    major_brand     : qt  
    minor_version   : 537986816
    compatible_brands: qt  
    comment         : DE=None, Mode=P, DSW=0001
    location        : +46.716149+17.869787+30.700
    location-{    : +46.716149+17.869787+30.700
    encoder         : Lavf56.40.101
    Stream #0:0(eng): Video: mjpeg, yuvj420p(pc), 4096x2160 [SAR 1:1 DAR 256:135], q=2-31, 10000 kb/s, 50 fps, 50 tbn, 50 tbc (default)
    Metadata:
      creation_time   : 2018-07-10 09:25:21
      handler_name    : DJI.AVC
      encoder         : Lavc56.60.100 mjpeg
Stream mapping:
  Stream #0:0 -> #0:0 (h264 (native) -> mjpeg (native))
Press [q] to stop, [?] for help
frame=    1 fps=0.9 q=18.2 size=N/A time=00:00:00.02 bitrate=N/A    frame=    4 fps=2.2 q=24.8 size=N/A time=00:00:00.08 bitrate=N/A    frame=    7 fps=2.9 q=24.8 size=N/A time=00:00:00.14 bitrate=N/A    frame=   11 fps=3.6 q=24.8 size=N/A time=00:00:00.22 bitrate=N/A    frame=   14 fps=3.9 q=24.8 size=N/A time=00:00:00.28 bitrate=N/A    frame=   18 fps=4.2 q=24.8 size=N/A time=00:00:00.36 bitrate=N/A    frame=   22 fps=4.4 q=24.8 size=N/A time=00:00:00.44 bitrate=N/A    frame=   25 fps=4.5 q=24.8 size=N/A time=00:00:00.50 bitrate=N/A    frame=   28 fps=4.5 q=24.8 size=N/A time=00:00:00.56 bitrate=N/A    frame=   32 fps=4.7 q=24.8 size=N/A time=00:00:00.64 bitrate=N/A    frame=   35 fps=4.8 q=24.8 size=N/A time=00:00:00.70 bitrate=N/A    frame=   38 fps=4.8 q=24.8 size=N/A time=00:00:00.76 bitrate=N/A    frame=   41 fps=4.9 q=24.8 size=N/A time=00:00:00.82 bitrate=N/A    frame=   44 fps=4.9 q=24.8 size=N/A time=00:00:00.88 bitrate=N/A    frame=   48 fps=5.0 q=24.8 size=N/A time=00:00:00.96 bitrate=N/A    frame=   51 fps=5.0 q=24.8 size=N/A time=00:00:01.02 bitrate=N/A    frame=   55 fps=5.1 q=24.8 size=N/A time=00:00:01.10 bitrate=N/A    frame=   58 fps=5.1 q=24.8 size=N/A time=00:00:01.16 bitrate=N/A    frame=   61 fps=5.1 q=24.8 size=N/A time=00:00:01.22 bitrate=N/A    frame=   65 fps=5.2 q=24.8 size=N/A time=00:00:01.30 bitrate=N/A    frame=   69 fps=5.3 q=24.8 size=N/A time=00:00:01.38 bitrate=N/A    frame=   72 fps=5.3 q=24.8 size=N/A time=00:00:01.44 bitrate=N/A    frame=   75 fps=5.3 q=24.8 size=N/A time=00:00:01.50 bitrate=N/A    frame=   79 fps=5.3 q=24.8 size=N/A time=00:00:01.58 bitrate=N/A    frame=   82 fps=5.4 q=24.8 size=N/A time=00:00:01.64 bitrate=N/A    frame=   85 fps=5.4 q=24.8 size=N/A time=00:00:01.70 bitrate=N/A    frame=   89 fps=5.4 q=24.8 size=N/A time=00:00:01.78 bitrate=N/A    frame=   92 fps=5.3 q=24.8 size=N/A time=00:00:01.84 bitrate=N/A    frame=   95 fps=5.3 q=24.8 size=N/A time=00:00:01.90 bitrate=N/A    frame=   99 fps=5.4 q=24.8 size=N/A time=00:00:01.98 bitrate=N/A    frame=  103 fps=5.4 q=24.8 size=N/A time=00:00:02.06 bitrate=N/A    frame=  107 fps=5.4 q=24.8 size=N/A time=00:00:02.14 bitrate=N/A    frame=  111 fps=5.4 q=24.8 size=N/A time=00:00:02.22 bitrate=N/A    frame=  115 fps=5.4 q=24.8 size=N/A time=00:00:02.30 bitrate=N/A    frame=  118 fps=5.4 q=24.8 size=N/A time=00:00:02.36 bitrate=N/A    frame=  121 fps=5.4 q=24.8 size=N/A time=00:00:02.42 bitrate=N/A    frame=  125 fps=5.4 q=24.8 size=N/A time=00:00:02.50 bitrate=N/A    frame=  129 fps=5.5 q=24.8 size=N/A time=00:00:02.58 bitrate=N/A    frame=  133 fps=5.5 q=24.8 size=N/A time=00:00:02.66 bitrate=N/A    frame=  137 fps=5.5 q=24.8 size=N/A time=00:00:02.74 bitrate=N/A    frame=  140 fps=5.5 q=24.8 size=N/A time=00:00:02.80 bitrate=N/A    frame=  144 fps=5.5 q=24.8 size=N/A time=00:00:02.88 bitrate=N/A    frame=  148 fps=5.5 q=24.8 size=N/A time=00:00:02.96 bitrate=N/A    frame=  151 fps=5.5 q=24.8 size=N/A time=00:00:03.02 bitrate=N/A    frame=  154 fps=5.5 q=24.8 size=N/A time=00:00:03.08 bitrate=N/A    frame=  158 fps=5.5 q=24.8 size=N/A time=00:00:03.16 bitrate=N/A    frame=  161 fps=5.5 q=24.8 size=N/A time=00:00:03.22 bitrate=N/A    frame=  165 fps=5.6 q=24.8 size=N/A time=00:00:03.30 bitrate=N/A    frame=  168 fps=5.5 q=24.8 size=N/A time=00:00:03.36 bitrate=N/A    frame=  172 fps=5.5 q=24.8 size=N/A time=00:00:03.44 bitrate=N/A    frame=  176 fps=5.5 q=24.8 size=N/A time=00:00:03.52 bitrate=N/A    frame=  180 fps=5.6 q=24.8 size=N/A time=00:00:03.60 bitrate=N/A    frame=  184 fps=5.6 q=24.8 size=N/A time=00:00:03.68 bitrate=N/A    frame=  187 fps=5.6 q=24.8 size=N/A time=00:00:03.74 bitrate=N/A    frame=  190 fps=5.5 q=24.8 size=N/A time=00:00:03.80 bitrate=N/A    frame=  194 fps=5.6 q=24.8 size=N/A time=00:00:03.88 bitrate=N/A    frame=  198 fps=5.6 q=24.8 size=N/A time=00:00:03.96 bitrate=N/A    frame=  201 fps=5.6 q=24.8 size=N/A time=00:00:04.02 bitrate=N/A    frame=  204 fps=5.6 q=24.8 size=N/A time=00:00:04.08 bitrate=N/A    frame=  207 fps=5.6 q=24.8 size=N/A time=00:00:04.14 bitrate=N/A    frame=  209 fps=5.5 q=24.8 size=N/A time=00:00:04.18 bitrate=N/A    frame=  212 fps=5.5 q=24.8 size=N/A time=00:00:04.24 bitrate=N/A    frame=  216 fps=5.5 q=24.8 size=N/A time=00:00:04.32 bitrate=N/A    frame=  220 fps=5.5 q=24.8 size=N/A time=00:00:04.40 bitrate=N/A    frame=  223 fps=5.5 q=24.8 size=N/A time=00:00:04.46 bitrate=N/A    frame=  227 fps=5.6 q=24.8 size=N/A time=00:00:04.54 bitrate=N/A    frame=  231 fps=5.6 q=24.8 size=N/A time=00:00:04.62 bitrate=N/A    frame=  235 fps=5.6 q=24.8 size=N/A time=00:00:04.70 bitrate=N/A    frame=  239 fps=5.6 q=24.8 size=N/A time=00:00:04.78 bitrate=N/A    frame=  242 fps=5.6 q=24.8 size=N/A time=00:00:04.84 bitrate=N/A    frame=  246 fps=5.6 q=24.8 size=N/A time=00:00:04.92 bitrate=N/A    frame=  249 fps=5.6 q=24.8 size=N/A time=00:00:04.98 bitrate=N/A    frame=  253 fps=5.6 q=24.8 size=N/A time=00:00:05.06 bitrate=N/A    frame=  257 fps=5.6 q=24.8 size=N/A time=00:00:05.14 bitrate=N/A    frame=  261 fps=5.7 q=24.8 size=N/A time=00:00:05.22 bitrate=N/A    frame=  265 fps=5.7 q=24.8 size=N/A time=00:00:05.30 bitrate=N/A    frame=  269 fps=5.7 q=24.8 size=N/A time=00:00:05.38 bitrate=N/A    frame=  272 fps=5.7 q=24.8 size=N/A time=00:00:05.44 bitrate=N/A    frame=  276 fps=5.7 q=24.8 size=N/A time=00:00:05.52 bitrate=N/A    frame=  279 fps=5.7 q=24.8 size=N/A time=00:00:05.58 bitrate=N/A    frame=  283 fps=5.7 q=24.8 size=N/A time=00:00:05.66 bitrate=N/A    frame=  286 fps=5.7 q=24.8 size=N/A time=00:00:05.72 bitrate=N/A    frame=  289 fps=5.7 q=24.8 size=N/A time=00:00:05.78 bitrate=N/A    frame=  293 fps=5.7 q=24.8 size=N/A time=00:00:05.86 bitrate=N/A    frame=  296 fps=5.7 q=24.8 size=N/A time=00:00:05.92 bitrate=N/A    frame=  300 fps=5.7 q=24.8 size=N/A time=00:00:06.00 bitrate=N/A    frame=  303 fps=5.7 q=24.8 size=N/A time=00:00:06.06 bitrate=N/A    frame=  307 fps=5.8 q=24.8 size=N/A time=00:00:06.14 bitrate=N/A    frame=  310 fps=5.8 q=24.8 size=N/A time=00:00:06.20 bitrate=N/A    frame=  314 fps=5.8 q=24.8 size=N/A time=00:00:06.28 bitrate=N/A    frame=  318 fps=5.8 q=24.8 size=N/A time=00:00:06.36 bitrate=N/A    frame=  322 fps=5.8 q=24.8 size=N/A time=00:00:06.44 bitrate=N/A    frame=  326 fps=5.8 q=24.8 size=N/A time=00:00:06.52 bitrate=N/A    frame=  330 fps=5.8 q=24.8 size=N/A time=00:00:06.60 bitrate=N/A    frame=  333 fps=5.8 q=24.8 size=N/A time=00:00:06.66 bitrate=N/A    frame=  337 fps=5.8 q=24.8 size=N/A time=00:00:06.74 bitrate=N/A    frame=  341 fps=5.8 q=24.8 size=N/A time=00:00:06.82 bitrate=N/A    frame=  344 fps=5.8 q=24.8 size=N/A time=00:00:06.88 bitrate=N/A    frame=  348 fps=5.8 q=24.8 size=N/A time=00:00:06.96 bitrate=N/A    frame=  352 fps=5.8 q=24.8 size=N/A time=00:00:07.04 bitrate=N/A    frame=  356 fps=5.8 q=24.8 size=N/A time=00:00:07.12 bitrate=N/A    frame=  360 fps=5.9 q=24.8 size=N/A time=00:00:07.20 bitrate=N/A    frame=  363 fps=5.8 q=24.8 size=N/A time=00:00:07.26 bitrate=N/A    frame=  367 fps=5.9 q=24.8 size=N/A time=00:00:07.34 bitrate=N/A    frame=  372 fps=5.9 q=24.8 size=N/A time=00:00:07.44 bitrate=N/A    frame=  376 fps=5.9 q=24.8 size=N/A time=00:00:07.52 bitrate=N/A    frame=  380 fps=5.9 q=24.8 size=N/A time=00:00:07.60 bitrate=N/A    frame=  384 fps=5.9 q=24.8 size=N/A time=00:00:07.68 bitrate=N/A    frame=  388 fps=5.9 q=24.8 size=N/A time=00:00:07.76 bitrate=N/A    frame=  391 fps=5.9 q=24.8 size=N/A time=00:00:07.82 bitrate=N/A    frame=  394 fps=5.9 q=24.8 size=N/A time=00:00:07.88 bitrate=N/A    frame=  397 fps=5.9 q=24.8 size=N/A time=00:00:07.94 bitrate=N/A    frame=  401 fps=5.9 q=24.8 size=N/A time=00:00:08.02 bitrate=N/A    frame=  405 fps=5.9 q=24.8 size=N/A time=00:00:08.10 bitrate=N/A    frame=  409 fps=5.9 q=24.8 size=N/A time=00:00:08.18 bitrate=N/A    frame=  413 fps=5.9 q=24.8 size=N/A time=00:00:08.26 bitrate=N/A    frame=  417 fps=5.9 q=24.8 size=N/A time=00:00:08.34 bitrate=N/A    frame=  421 fps=6.0 q=24.8 size=N/A time=00:00:08.42 bitrate=N/A    frame=  425 fps=6.0 q=24.8 size=N/A time=00:00:08.50 bitrate=N/A    frame=  429 fps=6.0 q=24.8 size=N/A time=00:00:08.58 bitrate=N/A    frame=  433 fps=6.0 q=24.8 size=N/A time=00:00:08.66 bitrate=N/A    frame=  436 fps=6.0 q=24.8 size=N/A time=00:00:08.72 bitrate=N/A    frame=  439 fps=6.0 q=24.8 size=N/A time=00:00:08.78 bitrate=N/A    frame=  443 fps=6.0 q=24.8 size=N/A time=00:00:08.86 bitrate=N/A    frame=  447 fps=6.0 q=24.8 size=N/A time=00:00:08.94 bitrate=N/A    frame=  451 fps=6.0 q=24.8 size=N/A time=00:00:09.02 bitrate=N/A    frame=  454 fps=6.0 q=24.8 size=N/A time=00:00:09.08 bitrate=N/A    frame=  458 fps=6.0 q=24.8 size=N/A time=00:00:09.16 bitrate=N/A    frame=  462 fps=6.0 q=24.8 size=N/A time=00:00:09.24 bitrate=N/A    frame=  466 fps=6.0 q=24.8 size=N/A time=00:00:09.32 bitrate=N/A    frame=  470 fps=6.0 q=24.8 size=N/A time=00:00:09.40 bitrate=N/A    frame=  474 fps=6.0 q=24.8 size=N/A time=00:00:09.48 bitrate=N/A    frame=  478 fps=6.0 q=24.8 size=N/A time=00:00:09.56 bitrate=N/A    frame=  482 fps=6.0 q=24.8 size=N/A time=00:00:09.64 bitrate=N/A    frame=  485 fps=6.0 q=24.8 size=N/A time=00:00:09.70 bitrate=N/A    frame=  489 fps=6.0 q=24.8 size=N/A time=00:00:09.78 bitrate=N/A    frame=  493 fps=6.0 q=24.8 size=N/A time=00:00:09.86 bitrate=N/A    frame=  496 fps=6.0 q=24.8 size=N/A time=00:00:09.92 bitrate=N/A    frame=  499 fps=6.0 q=24.8 size=N/A time=00:00:09.98 bitrate=N/A    frame=  503 fps=6.0 q=24.8 size=N/A time=00:00:10.06 bitrate=N/A    frame=  506 fps=6.0 q=24.8 size=N/A time=00:00:10.12 bitrate=N/A    frame=  510 fps=6.0 q=24.8 size=N/A time=00:00:10.20 bitrate=N/A    frame=  513 fps=6.0 q=24.8 size=N/A time=00:00:10.26 bitrate=N/A    frame=  517 fps=6.0 q=24.8 size=N/A time=00:00:10.34 bitrate=N/A    frame=  520 fps=6.0 q=24.8 Lsize=N/A time=00:00:10.40 bitrate=N/A    
video:485429kB audio:0kB subtitle:0kB other streams:0kB global headers:0kB muxing overhead: unknown
+ turkic load DJI_0016_gazos_gyer_gabonaban_turas_kotcse_20180710_napos_kalaszos_T4 /home/horvathandras/vatic/vatic/videos/DJI_0016_gazos_gyer_gabonaban_turas_kotcse_20180710_napos_kalaszos_T4 $'Pozit\303\255vROI' $'Negat\303\255vROI' $'T\303\272r\303\241s' '~Friss' '~1-2Hetes' '~Régebbi' '~Egyéb1' '~Egyéb2' '~Egyéb3' $'R\303\241g\303\241s' '~Friss' '~1-2Hetes' '~Régebbi' '~Egyéb1' '~Egyéb2' '~Egyéb3' $'T\303\266r\303\251s' '~Friss' '~1-2Hetes' '~Régebbi' '~Egyéb1' '~Egyéb2' '~Egyéb3' $'Tapos\303\241s' '~Friss' '~1-2Hetes' '~Régebbi' '~Egyéb1' '~Egyéb2' '~Egyéb3' $'Eg\303\251szs\303\251gesN\303\266v\303\251ny' $'Egy\303\251b1' $'Egy\303\251b2' $'Egy\303\251b3' $'Egy\303\251b4' $'Egy\303\251b5' Bizonytalan $'M\305\261vel\305\221\303\272t' $'Gktapos\303\241s' $'Vet\305\221hiba' $'Sz\303\251ld\303\266nt\303\251s' $'J\303\251gk\303\241r' $'Belv\303\255z' $'Asz\303\241ly' $'Er\303\263zi\303\263' $'Egyszik\305\261Gyom' $'K\303\251tszik\305\261Gyom' $'Egy\303\251bN\303\266vv\303\251delmiPR' --offline --title '$filenameNoDot Video' --length 1000 --description 'vatic annotation'
+ turkic publish --offline
+ mkdir /home/horvathandras/vatic/vatic/public/videothumbnails/DJI_0016_gazos_gyer_gabonaban_turas_kotcse_20180710_napos_kalaszos_T4
+ cp /home/horvathandras/vatic/vatic/videos/DJI_0016_gazos_gyer_gabonaban_turas_kotcse_20180710_napos_kalaszos_T4/0/0/31.jpg /home/horvathandras/vatic/vatic/public/videothumbnails/DJI_0016_gazos_gyer_gabonaban_turas_kotcse_20180710_napos_kalaszos_T4/thumb.jpg
